<?xml version="1.0" encoding="UTF-8"?>
<svg xmlns="http://www.w3.org/2000/svg" viewBox="0 0 1200 630" role="img" aria-labelledby="title-capital-gains-tax-short-term-vs-long-term">
  <title id="title-capital-gains-tax-short-term-vs-long-term">Capital Gains Tax Explained: Short-Term vs Long-Term Rates in 2026</title>
  <defs>
    <linearGradient id="g" gradientTransform="rotate(39)">
      <stop offset="0%" stop-color="#78350f"/>
      <stop offset="100%" stop-color="#f59e0b"/>
    </linearGradient>
    <radialGradient id="glow" cx="0.78" cy="0.45" r="0.55">
      <stop offset="0%" stop-color="#fef3c7" stop-opacity="0.35"/>
      <stop offset="70%" stop-color="#fef3c7" stop-opacity="0"/>
    </radialGradient>
    <pattern id="pat" width="80" height="80" patternUnits="userSpaceOnUse"><circle cx="40" cy="40" r="26" fill="none" stroke="#fef3c7" stroke-width="1.2" stroke-opacity="0.18"/><circle cx="0" cy="0" r="26" fill="none" stroke="#fef3c7" stroke-width="1.2" stroke-opacity="0.18"/><circle cx="80" cy="80" r="26" fill="none" stroke="#fef3c7" stroke-width="1.2" stroke-opacity="0.18"/></pattern>
  </defs>

  <!-- background -->
  <rect width="1200" height="630" fill="url(#g)"/>
  <rect width="1200" height="630" fill="url(#pat)"/>
  <rect width="1200" height="630" fill="url(#glow)"/>

  <!-- icon halo on the right -->
  <circle cx="950" cy="315" r="210" fill="#fef3c7" fill-opacity="0.08"/>
  <circle cx="950" cy="315" r="150" fill="#fef3c7" fill-opacity="0.12"/>

  <!-- icon -->
  <g transform="translate(870 235) scale(1)" color="#fef3c7">
    
      <g fill="none" stroke="currentColor" stroke-width="6" stroke-linecap="round" stroke-linejoin="round">
        <path d="M40 18 H120 V138 L110 130 L100 138 L90 130 L80 138 L70 130 L60 138 L50 130 L40 138 Z"/>
        <path d="M54 46 H106"/>
        <path d="M54 66 H106"/>
        <path d="M54 86 H86"/>
        <path d="M54 106 H106"/>
      </g>
  </g>

  <!-- category pill -->
  <g transform="translate(80 160)">
    <rect x="0" y="0" rx="22" ry="22" width="48" height="36" fill="#fef3c7" fill-opacity="0.18" stroke="#fef3c7" stroke-opacity="0.55"/>
    <text x="18" y="24" font-family="Inter, system-ui, -apple-system, 'Segoe UI', Roboto, sans-serif" font-size="14" font-weight="700" letter-spacing="2" fill="#fef3c7">TAX</text>
  </g>

  <!-- title -->
  <text font-family="Inter, system-ui, -apple-system, 'Segoe UI', Roboto, sans-serif" font-size="54" font-weight="800" fill="#ffffff" y="296" style="paint-order:stroke fill">
    <tspan x="80" dy="0">Capital Gains Tax</tspan><tspan x="80" dy="64">Explained: Short-</tspan><tspan x="80" dy="64">Term vs Long-Term…</tspan>
  </text>

  <!-- wordmark -->
  <g transform="translate(80 550)">
    <circle cx="14" cy="14" r="14" fill="#fef3c7" fill-opacity="0.22"/>
    <text x="8" y="20" font-family="Inter, system-ui, sans-serif" font-size="18" font-weight="800" fill="#fef3c7">$</text>
    <text x="40" y="22" font-family="Inter, system-ui, sans-serif" font-size="20" font-weight="700" fill="#ffffff" fill-opacity="0.92">MyCalcFinance</text>
  </g>

  <!-- corner URL -->
  <text x="1120" y="572" text-anchor="end" font-family="Inter, system-ui, sans-serif" font-size="16" font-weight="500" fill="#fef3c7" fill-opacity="0.85">mycalcfinance.com</text>
</svg>
