<?xml version="1.0" encoding="UTF-8"?>
<svg xmlns="http://www.w3.org/2000/svg" viewBox="0 0 1200 630" role="img" aria-labelledby="title-hsa-calculator-guide-2026">
  <title id="title-hsa-calculator-guide-2026">HSA Calculator 2026: How Much Should You Contribute (and Why It&apos;s the Best Retirement Account You&apos;re Not Maxing Out)</title>
  <defs>
    <linearGradient id="g" gradientTransform="rotate(87)">
      <stop offset="0%" stop-color="#78350f"/>
      <stop offset="100%" stop-color="#f59e0b"/>
    </linearGradient>
    <radialGradient id="glow" cx="0.78" cy="0.45" r="0.55">
      <stop offset="0%" stop-color="#fef3c7" stop-opacity="0.35"/>
      <stop offset="70%" stop-color="#fef3c7" stop-opacity="0"/>
    </radialGradient>
    <pattern id="pat" width="40" height="40" patternUnits="userSpaceOnUse"><circle cx="20" cy="20" r="2" fill="#fef3c7" fill-opacity="0.22"/></pattern>
  </defs>
  <rect width="1200" height="630" fill="url(#g)"/>
  <rect width="1200" height="630" fill="url(#pat)"/>
  <rect width="1200" height="630" fill="url(#glow)"/>
  <circle cx="950" cy="315" r="210" fill="#fef3c7" fill-opacity="0.08"/>
  <circle cx="950" cy="315" r="150" fill="#fef3c7" fill-opacity="0.12"/>
  <g transform="translate(870 235)" color="#fef3c7">
    
      <g fill="none" stroke="currentColor" stroke-width="6" stroke-linecap="round" stroke-linejoin="round">
        <path d="M40 18 H120 V138 L110 130 L100 138 L90 130 L80 138 L70 130 L60 138 L50 130 L40 138 Z"/>
        <path d="M54 46 H106"/>
        <path d="M54 66 H106"/>
        <path d="M54 86 H86"/>
        <path d="M54 106 H106"/>
      </g>
  </g>
  <g transform="translate(80 160)">
    <rect x="0" y="0" rx="22" ry="22" width="48" height="36" fill="#fef3c7" fill-opacity="0.18" stroke="#fef3c7" stroke-opacity="0.55"/>
    <text x="18" y="24" font-family="Inter, system-ui, -apple-system, 'Segoe UI', Roboto, sans-serif" font-size="14" font-weight="700" letter-spacing="2" fill="#fef3c7">TAX</text>
  </g>
  <text font-family="Inter, system-ui, -apple-system, 'Segoe UI', Roboto, sans-serif" font-size="54" font-weight="800" fill="#ffffff" y="296">
    <tspan x="80" dy="0">HSA Calculator 2026:</tspan><tspan x="80" dy="64">How Much Should You</tspan><tspan x="80" dy="64">Contribute (and Why…</tspan>
  </text>
  <g transform="translate(80 550)">
    <circle cx="14" cy="14" r="14" fill="#fef3c7" fill-opacity="0.22"/>
    <text x="8" y="20" font-family="Inter, system-ui, sans-serif" font-size="18" font-weight="800" fill="#fef3c7">$</text>
    <text x="40" y="22" font-family="Inter, system-ui, sans-serif" font-size="20" font-weight="700" fill="#ffffff" fill-opacity="0.92">MyCalcFinance</text>
  </g>
  <text x="1120" y="572" text-anchor="end" font-family="Inter, system-ui, sans-serif" font-size="16" font-weight="500" fill="#fef3c7" fill-opacity="0.85">mycalcfinance.com</text>
</svg>
